<svg width="55" height="47" viewBox="0 0 55 47" fill="none" xmlns="http://www.w3.org/2000/svg">
<path d="M53.3534 21.65L54.0418 19.4963L51.7643 19.5661C51.572 19.5661 50.1734 19.5273 48.8164 18.5657C48.9176 18.5754 49.0187 18.589 49.1219 18.589C50.5185 18.589 51.8695 17.767 52.411 16.5922L53.3911 14.4694C52.1631 14.485 51.0402 14.3338 51.0402 14.3338C51.0303 14.3318 50.1455 14.2213 49.1219 13.1997C48.3879 12.4669 47.4793 12.0792 46.4953 12.0792C46.0648 12.0792 45.6799 12.1548 45.3486 12.2576C45.4002 12.085 45.4497 11.9105 45.4776 11.7302C45.791 9.74329 44.4817 8.22728 44.4817 8.22928L42.7696 6.15686L41.7083 8.59177C41.7044 8.59955 41.4364 9.16945 40.9564 9.44863C40.8116 8.7333 40.4565 7.92877 39.6967 7.15912C38.2643 5.70904 36.5205 5.49395 35.608 5.49395C35.1854 5.49395 34.8839 5.53851 34.8105 5.55017L32.7432 5.94755C32.8623 5.49585 33.1162 4.71075 33.5804 4.0031L34.7212 2.26618L31.8505 2.58601L30.936 0.688214L29.1664 1.57995L27.5297 0L25.8971 1.57995L24.1215 0.688214L23.2089 2.58601L20.3403 2.26618L21.4831 4.0031C21.9473 4.71075 22.2012 5.49395 22.3182 5.94556L20.3464 5.56562L20.2788 5.55396C20.1796 5.53851 19.8801 5.49395 19.4555 5.49395C18.543 5.49395 16.7992 5.71104 15.3708 7.15912C14.6089 7.92678 14.2539 8.7333 14.1071 9.44863C13.631 9.17334 13.3651 8.6111 13.3651 8.6111L12.3018 6.16273L10.5619 8.24861C10.3497 8.51811 9.30028 9.94287 9.58582 11.7342C9.61569 11.9125 9.66333 12.087 9.71488 12.2595C9.3856 12.1567 9.00058 12.0812 8.57017 12.0812C7.58624 12.0812 6.67758 12.4689 5.94161 13.2017C4.92185 14.2194 4.04111 14.3338 4.04902 14.3338C4.04902 14.3338 3.11849 14.4967 1.67828 14.4714L2.65244 16.5942C3.19395 17.7709 4.54699 18.5908 5.94161 18.5908C6.04675 18.5908 6.14788 18.5773 6.25107 18.5676C4.89803 19.5291 3.49951 19.5679 3.33091 19.5699L1.00977 19.4963L1.71206 21.648C2.06515 22.7569 3.2455 24.5947 5.50709 24.7924C5.26109 25.8004 4.71558 26.9286 3.51737 27.4152L1.78947 28.1112L2.73171 29.7145C3.26336 30.5791 4.51126 31.591 6.28875 31.591C6.67357 31.589 7.04454 31.5522 7.40173 31.4786C7.49291 31.874 7.60801 32.2694 7.74292 32.6611C8.27262 34.2002 7.81624 35.2743 7.81038 35.2859L6.95726 37.0325L8.86176 37.523C8.88558 37.5308 9.46087 37.6838 10.181 37.6838C10.5084 37.6838 10.8199 37.651 11.1135 37.5831C11.3357 37.5326 11.5479 37.4648 11.7522 37.3835C11.9982 37.8157 12.2978 38.2092 12.647 38.562C13.867 39.7853 15.5949 40.4056 17.7852 40.4056H17.7931L19.3564 40.3863L16.1267 41.6968L18.5786 42.8541C19.4694 43.2786 20.5269 43.7807 21.602 44.1646L21.2965 44.9827L22.1416 45.3587C22.2171 45.3917 23.8418 46.1031 26.5439 46.2543C26.5439 46.2543 27.1965 46.2834 27.5555 46.2834C27.9147 46.2834 28.5594 46.2524 28.5594 46.2524C31.2435 46.0974 32.8564 45.3935 32.9318 45.3587L33.7788 44.9806L33.4693 44.1606C34.5764 43.7651 35.6715 43.2437 36.5245 42.8366L38.9309 41.6949L35.7111 40.3824L37.2804 40.4018C39.4725 40.4018 41.2024 39.7814 42.4205 38.5562C42.7677 38.2054 43.0672 37.8119 43.3153 37.3796C43.5196 37.461 43.7338 37.5288 43.9559 37.5792C44.2475 37.6471 44.559 37.68 44.8864 37.68C45.5946 37.68 46.1759 37.5269 46.1918 37.523L48.1042 37.0286L47.2709 35.3149C47.2512 35.2704 46.7949 34.1984 47.3246 32.6571C47.4595 32.2637 47.5724 31.8681 47.6638 31.4747C48.0229 31.5484 48.3978 31.5871 48.7847 31.5871C51.0482 31.5871 52.1334 30.0304 52.3437 29.6931L53.2761 28.1074L51.5482 27.4134C50.3479 26.9268 49.8044 25.7965 49.5604 24.7905C51.7902 24.6044 52.9884 22.7666 53.3534 21.65ZM22.469 6.6881L22.4452 6.69387L22.4649 6.66866L22.469 6.6881Z" fill="white"/>
<path d="M27.5318 6.59277C25.7027 6.59476 24.3319 7.18023 24.0323 7.86843L27.5318 9.21765L31.0313 7.86843C30.7338 7.18023 29.3629 6.59476 27.5318 6.59277Z" fill="white"/>
<path d="M27.5674 42.3112H27.5634H27.5336H27.5H27.498C26.389 42.319 24.8634 42.096 24.1274 41.8867L23.2427 44.2266C23.8259 44.4301 25.8018 44.8178 27.5336 44.8178C29.2615 44.8178 31.2395 44.4282 31.8208 44.2266L30.938 41.8867C30.1999 42.098 28.6763 42.319 27.5674 42.3112Z" fill="white"/>
<path d="M34.263 39.9849C33.6043 40.3493 32.1344 40.896 31.2793 41.15L31.9974 43.0826C33.3207 42.7298 34.4118 42.3169 35.3144 41.8749L33.8245 41.3903L34.263 39.9849Z" fill="white"/>
<path d="M20.8025 39.9849L21.243 41.3903L19.7511 41.8749C20.6518 42.3169 21.7488 42.7298 23.066 43.0826L23.7842 41.15C22.9332 40.896 21.4611 40.3474 20.8025 39.9849Z" fill="white"/>
<path d="M27.5322 4.35625C28.9109 4.35625 30.2639 4.67799 31.3034 5.24411C31.3987 4.93195 31.5315 4.5539 31.7121 4.15851L31.3193 4.20495L30.9066 4.24761L30.732 3.88123L30.2064 2.79563L29.2482 3.28422L28.8752 3.4703L28.5776 3.18335L27.5361 2.17529L26.4966 3.18335L26.1989 3.4703L25.826 3.28422L24.8619 2.79563L24.3422 3.88123L24.1635 4.24761L23.7509 4.20495L23.3582 4.15851C23.5387 4.55589 23.6697 4.93195 23.7668 5.24411C24.8083 4.67799 26.1574 4.35625 27.5322 4.35625Z" fill="white"/>
<path d="M48.5823 16.9026C48.7608 16.9627 48.9433 16.9898 49.1238 16.9898C49.9034 16.9898 50.6574 16.4974 50.9172 15.9333C50.9172 15.9333 49.4869 15.848 47.9494 14.3224C47.4594 13.828 46.9416 13.6807 46.4972 13.6807C45.8069 13.6807 45.2891 14.0374 45.2891 14.0374C47.1459 15.0028 47.5248 16.5537 48.5823 16.9026Z" fill="white"/>
<path d="M5.93952 16.9898C6.12002 16.9898 6.30258 16.9627 6.47712 16.9026C7.53856 16.5537 7.91938 15.0028 9.77624 14.0374C9.77624 14.0374 9.2565 13.6807 8.57003 13.6807C8.1238 13.6807 7.60592 13.828 7.11391 14.3224C5.57842 15.848 4.14807 15.9333 4.14807 15.9333C4.40403 16.4974 5.15982 16.9898 5.93952 16.9898Z" fill="white"/>
<path d="M49.0862 23.2048C49.118 23.2067 49.1458 23.2067 49.1794 23.2067C51.1257 23.2067 51.7862 21.1693 51.7862 21.1693H51.7485C51.3914 21.1693 48.497 21.0879 46.4517 18.5464C45.1047 16.8754 44.0017 15.4059 41.8214 14.8282L41.6071 14.7914L41.5596 14.5781C41.5 14.2524 41.7281 13.9481 42.246 13.6186C45.2535 11.6935 43.2121 9.23929 43.2121 9.23929C43.2121 9.23929 42.3531 11.2031 40.4307 11.2031C40.3851 11.2031 40.3356 11.2012 40.2879 11.2012C40.0697 11.1896 39.8594 11.1818 39.6472 11.1372L39.292 11.0693C39.292 11.0693 39.8396 9.61348 38.5183 8.27589C37.5224 7.26584 36.3102 7.09521 35.61 7.09521C35.2569 7.09521 35.0327 7.13986 35.0327 7.13986C35.6973 7.98894 36.1774 9.39637 35.4096 10.2648C34.747 11.0112 33.1282 11.048 33.1282 12.1608C33.1282 12.6318 33.5785 13.1824 34.388 13.6767C36.8222 15.1752 39.2384 17.1623 40.2422 19.8258C41.4981 23.1486 40.0835 25.3527 38.064 26.6167C38.064 26.6167 38.6969 27.1866 39.6154 27.2584C39.8019 27.2758 39.9843 27.2836 40.155 27.2836C42.0933 27.2836 43.095 26.3957 43.095 26.3957C43.095 26.3957 42.9304 27.6228 41.9207 28.7626C40.9902 29.8153 39.7681 30.4338 37.9053 30.4608C37.9053 30.4608 37.8458 31.3062 38.671 32.0369C39.1989 32.4983 40.4188 32.6495 40.4188 32.6495C40.4188 32.6495 38.1354 33.1011 37.8835 36.3968C37.7466 38.1822 37.2803 38.8026 37.2803 38.8026H37.322C42.6209 38.8026 42.4839 34.3613 42.4839 34.3613C42.4839 34.3613 42.853 35.6757 44.331 36.0188C44.5095 36.0653 44.6999 36.0828 44.8825 36.0828C45.3586 36.0828 45.7712 35.9742 45.7712 35.9742C45.7712 35.9742 44.9975 34.3787 45.7653 32.1474C46.4021 30.2961 46.2989 28.9236 46.2989 28.9236C46.2989 28.9236 47.0132 29.9782 48.7828 29.9879H48.8005C50.2746 29.9879 50.9173 28.8965 50.9173 28.8965C47.3841 27.4639 47.7333 22.8385 47.7333 22.8385C47.7333 22.8385 48.1916 23.1718 49.0862 23.2048ZM48.0229 28.0357C46.5866 27.3437 45.678 25.5058 45.4578 24.8429C45.2198 28.4874 43.3986 31.0173 41.2699 33.4521C40.1649 34.7141 39.78 35.9412 39.78 35.9412C39.78 35.9412 39.9923 34.5513 40.9485 33.4191C42.9344 31.087 44.8209 28.185 44.9619 24.8294C45.059 22.4875 44.442 20.5877 43.4799 19.0233C44.0175 20.6536 43.9422 22.6503 42.115 24.5133C42.115 24.5133 45.7514 20.2543 40.6669 15.8886C38.6314 14.2272 36.4055 13.2017 35.259 12.4748C39.4011 13.795 41.4227 12.341 41.4227 12.341C40.0994 13.4616 38.3873 13.4421 37.3261 13.2812C37.6137 13.4189 37.9132 13.5623 38.2366 13.731C41.7281 15.5842 44.8667 18.6336 45.4022 22.8578V22.8249C46.2156 26.9714 48.0229 28.0357 48.0229 28.0357Z" fill="white"/>
<path d="M14.6448 32.6495C14.6448 32.6495 15.8649 32.5003 16.3926 32.0369C17.2158 31.3062 17.1583 30.4608 17.1583 30.4608C15.2935 30.4357 14.0735 29.8153 13.137 28.7647C12.1352 27.6248 11.9686 26.3977 11.9686 26.3977C11.9686 26.3977 12.9704 27.2854 14.9066 27.2854C15.0812 27.2854 15.2618 27.2777 15.4483 27.2603C16.3667 27.1886 17.0016 26.6186 17.0016 26.6186C14.9821 25.3547 13.5656 23.1486 14.8193 19.8258C15.8252 17.1642 18.2395 15.1752 20.6737 13.6767C21.4831 13.1824 21.9334 12.6337 21.9334 12.1608C21.9334 11.048 20.3166 11.0112 19.654 10.2648C18.8862 9.39637 19.3683 7.98695 20.0309 7.13986C20.0309 7.13986 19.8107 7.09521 19.4556 7.09521C18.7574 7.09521 17.5451 7.26584 16.5493 8.27589C15.2241 9.61348 15.7736 11.0693 15.7736 11.0693L15.4184 11.1372C15.2062 11.1818 14.994 11.1896 14.7777 11.2012C14.7282 11.2012 14.6844 11.2031 14.6368 11.2031C12.7105 11.2031 11.8555 9.24128 11.8555 9.24128C11.8555 9.24128 9.81408 11.6956 12.8198 13.6205C13.3374 13.95 13.5635 14.2544 13.5041 14.5801L13.4564 14.7934L13.2383 14.8301C11.062 15.4078 9.957 16.8774 8.61002 18.5484C6.56855 21.086 3.67808 21.1693 3.31708 21.1693H3.27734C3.27734 21.1693 3.93795 23.2067 5.88413 23.2067C5.91586 23.2067 5.94358 23.2067 5.97736 23.2048C6.87216 23.1738 7.33245 22.8385 7.33245 22.8385C7.33245 22.8385 7.67754 27.4619 4.14832 28.8965C4.14832 28.8965 4.79106 29.9879 6.26505 29.9879H6.28282C8.05445 29.9782 8.7667 28.9236 8.7667 28.9236C8.7667 28.9236 8.66351 30.2961 9.29825 32.1474C10.066 34.3787 9.29639 35.9742 9.29639 35.9742C9.29639 35.9742 9.70904 36.0828 10.1831 36.0828C10.3676 36.0828 10.5561 36.0653 10.7327 36.0188C12.2086 35.6757 12.5796 34.3613 12.5796 34.3613C12.5796 34.3613 12.4447 38.8026 17.7436 38.8026H17.7813C17.7813 38.8026 17.3171 38.1822 17.1822 36.3968C16.9282 33.1011 14.6448 32.6495 14.6448 32.6495ZM13.7937 33.4521C11.6651 31.0173 9.84591 28.4874 9.60586 24.8429C9.38562 25.504 8.48096 27.3437 7.04475 28.0357C7.04475 28.0357 8.84997 26.9714 9.6614 22.8249V22.8578C10.199 18.6355 13.3355 15.5842 16.8291 13.731C17.1484 13.5605 17.4519 13.4169 17.7376 13.2812C16.6762 13.4421 14.9642 13.4616 13.641 12.341C13.641 12.341 15.6626 13.795 19.8027 12.4748C18.6561 13.2017 16.4322 14.2272 14.3968 15.8886C9.31026 20.2543 12.9486 24.5133 12.9486 24.5133C11.1195 22.6485 11.0461 20.6536 11.5838 19.0233C10.6196 20.5897 10.0045 22.4875 10.1037 24.8294C10.2426 28.185 12.1293 31.087 14.1112 33.4191C15.0693 34.5493 15.2856 35.9412 15.2856 35.9412C15.2856 35.9412 14.8966 34.7141 13.7937 33.4521Z" fill="white"/>
<path d="M23.6141 16.412C23.7014 16.5032 23.7866 16.6021 23.868 16.7009C23.8879 16.7242 23.9057 16.7455 23.9255 16.7727C24.0009 16.8716 24.0784 16.9762 24.1517 17.0829C24.1675 17.1042 24.1834 17.1294 24.2013 17.1546C24.2906 17.2864 24.3739 17.4221 24.4572 17.5617C25.221 18.8509 26.445 19.6204 27.5302 19.6224C28.6174 19.6204 29.8374 18.8509 30.6052 17.5617C30.6904 17.4183 30.7757 17.2787 30.865 17.1487C30.8789 17.1294 30.8929 17.1119 30.9047 17.0925C30.98 16.9821 31.0594 16.8736 31.1428 16.7687C31.1606 16.7455 31.1765 16.7261 31.1924 16.7068C31.2777 16.604 31.3649 16.5032 31.4542 16.4102C31.4701 16.3946 31.482 16.3811 31.4959 16.3695C31.8847 15.9798 32.349 15.6832 32.956 15.5184L32.6862 15.3653H32.6702L31.5951 14.7546L30.4902 14.1362L27.5381 15.7065L27.5302 15.7006L27.5242 15.7065L24.5703 14.1362L23.4673 14.7527L22.39 15.3634H22.3782L22.1044 15.5165C22.7133 15.6813 23.1757 15.974 23.5664 16.3636C23.5843 16.3792 23.5962 16.3967 23.6141 16.412ZM26.336 16.2861H27.5857H28.8335V17.1236C28.5399 16.7727 27.9686 16.8444 27.9686 16.8444V18.0521C27.9686 18.0521 27.9905 18.6454 28.2027 18.9032H27.5857H26.9668C27.1829 18.6472 27.2029 18.0521 27.2029 18.0521V16.8444C27.2029 16.8444 26.6335 16.7727 26.336 17.1236V16.2861Z" fill="white"/>
<path d="M27.2756 14.6614V9.75869L24.0815 8.7002L24.9248 13.4516L27.2756 14.6614ZM26.5891 10.9625V11.7496L26.4344 11.6798C26.4264 11.6739 26.2003 11.6236 25.8036 11.3173C25.1488 10.821 25.137 10.3635 25.137 10.3635L26.5891 10.9625Z" fill="white"/>
<path d="M30.1405 13.4516L30.9798 8.7002L27.7877 9.75869V14.6614L30.1405 13.4516ZM28.4741 10.9625L29.9262 10.3655C29.9262 10.3655 29.9144 10.8229 29.2577 11.3192C28.8629 11.6255 28.6348 11.6759 28.6269 11.6817L28.4721 11.7515V10.9625H28.4741Z" fill="white"/>
<path d="M22.7582 26.0273C23.0696 26.1379 23.4466 26.1611 23.639 26.1611C23.647 26.1379 23.6569 26.1088 23.6669 26.0738C23.6847 26.0177 23.7005 25.9634 23.7125 25.9013C23.766 25.63 23.7859 25.3217 23.7898 25.124C23.6589 25.0445 23.4744 24.903 23.3712 24.6917C23.2522 24.4474 23.0836 24.335 22.8355 24.335C22.5142 24.335 22.1691 24.523 22.0222 24.6121C21.9052 25.2888 22.415 25.9033 22.7582 26.0273Z" fill="white"/>
<path d="M29.8233 23.4253C29.2301 24.0553 28.0695 25.1526 28.0119 25.2088L27.9425 25.2785L24.2745 25.2223C24.2725 25.5771 24.2129 25.8795 24.1554 26.1005C24.1456 26.1374 24.1356 26.1762 24.1257 26.2149L28.4901 26.9807C28.9444 26.6705 30.1943 25.7787 30.6783 25.4299C30.3251 24.9258 30.2915 24.3287 30.3709 23.908C30.1407 23.7626 29.9641 23.5998 29.8233 23.4253Z" fill="white"/>
<path d="M30.3206 19.1143C29.4755 19.9342 28.6642 20.2366 27.9401 20.3064C27.8091 20.32 27.6763 20.3277 27.5414 20.3277H27.5314H27.5234C27.3885 20.3277 27.2537 20.32 27.1228 20.3064C26.9958 20.2948 26.8629 20.2754 26.7299 20.2463C26.6823 20.4306 26.6227 20.8163 26.7935 21.1808C26.9463 21.5122 27.2577 21.7585 27.712 21.9213L27.8647 21.9794L27.8667 22.1404C27.8667 22.1888 27.9024 23.2317 29.0669 23.5206C29.2574 23.3287 29.4299 23.1561 29.557 23.0127C29.3189 22.466 29.4438 21.9078 29.789 21.6344C29.7731 21.6925 29.6225 23.0612 30.7452 23.569L30.9297 23.6543L30.8742 23.8463C30.8563 23.9044 30.4814 25.2285 31.8403 25.7208L32.0804 25.8101L31.9733 26.0388C31.9495 26.0892 31.4158 27.2912 32.6715 27.9735H35.3953V25.8604C34.4273 25.7441 34.0166 24.9843 33.9115 24.4453C33.461 24.3697 33.112 24.1797 32.8739 23.8695C32.3026 23.1349 32.7946 22.4621 32.8005 22.4253C32.7985 22.4311 32.8005 23.1484 33.2528 23.5904C33.4769 23.8036 33.7429 23.9684 34.1455 24.0053L34.3439 24.0228L34.3618 24.2204C34.3658 24.263 34.4748 25.2324 35.3973 25.3855L35.3953 21.0702C35.3953 20.4015 35.5957 19.7288 35.8358 19.1084H30.3206V19.1143Z" fill="white"/>
<path d="M22.9907 21.0913L22.9174 23.8401L23.2367 23.8867L24.0183 21.2502L23.6215 20.4399L22.9907 21.0913Z" fill="white"/>
<path d="M31.6086 33.6983C31.6325 33.6983 31.6602 33.7023 31.6861 33.7081C32.172 33.8438 32.2951 35.5575 33.1481 35.7107C33.2314 35.7281 33.3087 35.732 33.3763 35.732C33.6223 35.732 33.769 35.6292 33.9277 35.4469C33.9277 35.4469 33.4992 34.7878 33.1779 34.3439C32.7513 33.7624 32.4201 33.0587 31.6264 33.0587C31.6086 33.0587 31.5848 33.0587 31.565 33.0606C31.3031 33.0742 31.1425 33.1982 31.1425 33.1982C30.821 33.0004 30.5214 32.9327 30.2498 32.9327C29.7518 32.9327 29.3649 33.1556 29.1725 33.1556H29.1645L27.391 32.9851C27.1133 32.9598 26.8951 32.6864 26.8157 32.5799C26.7958 32.5508 26.7859 32.5333 26.7859 32.5333C26.7859 32.4868 26.7859 32.4384 26.7819 32.3957C26.7224 30.9786 25.5997 30.3719 25.2008 30.3622C25.2008 30.3622 25.2484 30.0926 25.1394 29.9899L24.7485 30.4533L23.465 29.8232L24.3795 30.8681L23.6038 31.7192C23.5066 31.816 23.5186 31.9478 23.5582 32.0022L23.8935 32.291L24.318 32.0389C24.3398 32.0234 24.3775 32.0196 24.4251 32.0196C24.5422 32.0196 24.7187 32.0486 24.8774 32.0486C25.05 32.0486 25.2008 32.0119 25.2187 31.8529C25.1651 32.3783 24.6672 33.2913 24.9945 34.0085L25.2366 34.5494L23.6693 34.3285L22.9353 35.54C22.7092 35.9433 22.6734 36.3794 22.8916 36.616L23.1655 36.9514C23.1655 36.9514 23.5503 36.552 23.6376 36.2903L23.5126 36.1565C23.4074 36.0441 23.4134 35.9433 23.477 35.8211L23.9371 35.0748L25.7881 35.5013L25.8852 35.3384C26.0102 35.1349 26.1908 35.0729 26.3892 35.0729C26.4704 35.0729 26.5538 35.0826 26.6411 35.0962C26.9843 35.162 27.5497 35.2512 28.1151 35.2512C28.736 35.2512 29.3511 35.1427 29.6784 34.784C30.3488 35.7553 31.7078 35.9103 31.6007 36.4027L31.2436 38.066C31.4797 38.0563 31.7078 38.0409 31.9241 38.0118L32.2633 36.2806C32.301 36.0925 32.3367 35.8386 32.3367 35.8386C32.2058 35.7087 31.8883 35.4334 31.7098 35.1C31.4697 34.6502 31.6007 34.4157 31.3765 33.8302C31.3845 33.8341 31.4519 33.6983 31.6086 33.6983ZM24.6849 31.2674C24.5938 31.2656 24.5283 31.1899 24.5323 31.1007C24.5403 31.0154 24.6136 30.9477 24.7029 30.9553C24.7942 30.9592 24.8596 31.0367 24.8557 31.122C24.8477 31.2073 24.7723 31.2732 24.6849 31.2674Z" fill="white"/>
<path d="M22.1574 35.2721C22.1574 35.2721 22.7704 35.0259 22.826 34.8495L22.7447 34.6497C22.6871 34.5199 22.6951 34.3784 22.8062 34.3008L23.4687 33.853L24.5757 34.0604C24.5757 34.0604 24.3753 33.8162 24.3952 33.4886L23.3399 33.2695L22.3439 33.8627C21.9174 34.1749 21.8857 34.6846 22.0265 34.9872L22.1574 35.2721Z" fill="white"/>
<path d="M29.9814 38.091C30.1798 38.0832 30.398 38.0793 30.6381 38.0793C30.6381 38.0793 31.2075 36.4529 31.2392 36.4005C30.9198 36.2629 30.2572 35.9198 30.0013 35.7627C30.17 36.009 30.5805 36.2919 30.4992 36.5092L29.9814 38.091Z" fill="white"/>
<path d="M35.4015 28.4448H19.6637V34.2295C19.6637 36.5946 21.4154 38.0756 24.0003 38.0756C26.1608 38.0756 26.7301 38.1569 27.5337 38.9363C28.0871 38.3974 28.5454 38.1957 29.4857 38.1201L29.5076 38.031L30.0035 36.5325C29.9758 36.4995 29.1643 35.598 29.1643 35.598C28.843 35.7028 28.5731 35.7202 28.1189 35.7202C27.6527 35.7202 27.1269 35.6679 26.5575 35.5632C26.5 35.5496 26.4465 35.5457 26.3928 35.5457C26.3234 35.5457 26.3175 35.5516 26.2996 35.5845L26.2004 35.7435L26.0199 36.0343L25.6807 35.9587L24.171 35.6117L23.9647 35.945L23.9964 35.98L24.1808 36.1777L24.0996 36.4356C23.9885 36.7728 23.6274 37.1663 23.5183 37.275L23.1414 37.6704L22.7982 37.2459L22.5402 36.9299C22.2685 36.6333 22.205 36.1777 22.3578 35.7008C22.3538 35.7047 22.3479 35.7067 22.3418 35.7067L21.9153 35.8792L21.7229 35.4721L21.588 35.1832C21.3559 34.6753 21.4412 33.9329 22.0661 33.485L23.2822 32.8143L24.4389 33.0372C24.4666 32.9287 24.5083 32.541 24.5419 32.4421C24.5201 32.4401 24.4983 32.4344 24.4765 32.4344L23.8099 32.6766L23.1671 32.2424C23.1671 32.2424 22.9153 32.0059 23.1433 31.7694L23.7662 30.8486L22.1892 28.9139L24.6134 29.887L24.774 29.6912L25.1014 29.3094L25.4724 29.6544C25.5776 29.7533 25.6371 29.8755 25.6667 29.9976C26.3354 30.2515 27.5316 31.0017 27.6367 32.221L27.2618 32.3684V32.3781C27.3471 32.477 27.4185 32.5177 27.4404 32.5215L29.1703 32.6884C29.2139 32.6806 29.2695 32.6611 29.331 32.6436C29.5452 32.572 29.8686 32.4692 30.2515 32.4692C30.563 32.4692 30.8645 32.539 31.154 32.6709C31.2612 32.6321 31.3921 32.603 31.543 32.5933L31.6262 32.5913C32.5527 32.5913 33.013 33.2679 33.382 33.8068C33.4435 33.8998 33.505 33.9891 33.5685 34.0763C33.8918 34.5222 34.3144 35.1754 34.3322 35.2027L34.5227 35.4934L34.2886 35.759C34.1081 35.9625 33.8383 36.201 33.3741 36.201C33.2788 36.201 33.1736 36.1913 33.0606 36.17C32.9613 36.1525 32.8722 36.1234 32.7848 36.0886C32.7709 36.1777 32.7531 36.2844 32.7352 36.3755L32.4316 37.9224C34.247 37.4863 35.3996 36.1467 35.3996 34.2314L35.4015 28.4448Z" fill="#FFDD2D"/>
<path d="M19.6638 27.9798H31.9021C31.291 27.3634 31.2989 26.5821 31.4557 26.0742C31.2771 25.9909 31.1303 25.89 30.9994 25.7814C30.5212 26.1265 29.0611 27.1656 28.6803 27.4254L28.599 27.4796L23.796 26.6305H23.6988C23.5838 26.6305 23.4151 26.6267 23.2307 26.6054C23.179 26.8167 22.9926 26.9621 22.7783 26.9621C22.7545 26.9621 22.7267 26.9602 22.701 26.9543C22.576 26.9329 22.4668 26.871 22.3935 26.7682C22.318 26.6674 22.2883 26.5472 22.3101 26.4232L22.328 26.3224C21.832 25.9811 21.3757 25.2193 21.5781 24.4168L21.5979 24.3314L21.6673 24.2829C21.6772 24.2752 21.7606 24.221 21.8836 24.1511L21.5345 24.0988C21.4035 24.0756 21.3162 23.9572 21.3361 23.8313C21.3579 23.7033 21.4809 23.6122 21.6098 23.6375L22.4411 23.7654L22.5165 20.9041L23.7543 19.6245L24.5261 21.2123L23.7108 23.965L24.4448 24.0774C24.5737 24.0969 24.663 24.2151 24.6431 24.345C24.6232 24.4594 24.5241 24.5388 24.4071 24.5388C24.3951 24.5388 24.3812 24.5388 24.3694 24.5369L23.7722 24.4419C23.7802 24.4594 23.7921 24.4691 23.8 24.4885C23.8635 24.6163 24.0043 24.7094 24.0877 24.7482L27.7498 24.8044C27.9046 24.6571 28.2894 24.2887 28.6842 23.8991C27.7835 23.5657 27.4563 22.8057 27.4007 22.3018C26.8967 22.0923 26.5496 21.7784 26.3572 21.3693C26.123 20.8634 26.2065 20.3574 26.2679 20.1111C25.7799 19.9367 25.2661 19.6188 24.7423 19.1108H19.2273C19.4633 19.7312 19.6638 20.4038 19.6638 21.0727V27.9798Z" fill="#FFDD2D"/>
<path d="M24.7045 30.9552C24.6151 30.9474 24.5397 31.0153 24.5338 31.1006C24.5279 31.1897 24.5952 31.2654 24.6866 31.2673C24.7739 31.2751 24.8512 31.2091 24.8591 31.1219C24.8591 31.0366 24.7956 30.9572 24.7045 30.9552Z" fill="black"/>
<path d="M35.3796 41.4444L34.473 41.1052L34.7229 40.1902L34.9987 39.1919C34.9987 39.1919 33.3918 40.0428 31.1281 40.6826C30.4854 40.8629 29.9994 40.9443 29.9994 40.9443V41.6228C29.9994 41.6228 28.7891 41.8283 27.5653 41.8283H27.5513H27.5335H27.5097H27.4957C26.2717 41.8283 25.0617 41.6228 25.0617 41.6228V40.9443C25.0617 40.9443 24.5735 40.8629 23.9329 40.6826C21.6692 40.0428 20.0643 39.1919 20.0643 39.1919L20.3361 40.1902L20.592 41.1052L19.6834 41.4444L18.6755 41.8128C19.8322 42.3576 21.4332 43.1523 22.8992 43.5439L22.554 44.4666C22.554 44.4666 24.4129 45.2944 27.5097 45.3022V45.3042H27.5196H27.5335H27.5453H27.5533V45.3022C30.654 45.2944 32.5109 44.4666 32.5109 44.4666L32.1637 43.5439C33.6298 43.1523 35.2347 42.3576 36.3854 41.8128L35.3796 41.4444ZM19.7508 41.8748L21.2427 41.3901L20.8023 39.9847C21.4589 40.3491 22.9329 40.8958 23.7859 41.1497L23.0658 43.0825C21.7486 42.7278 20.6515 42.3148 19.7508 41.8748ZM27.5335 44.8176C25.8016 44.8176 23.8236 44.4278 23.2424 44.2262L24.1272 41.8864C24.8612 42.0958 26.3888 42.3188 27.4977 42.311H27.4998H27.5335H27.5632H27.5672C28.6762 42.3188 30.1998 42.0958 30.9377 41.8864L31.8206 44.2262C31.2392 44.4298 29.2633 44.8176 27.5335 44.8176ZM31.9971 43.0825L31.279 41.1497C32.134 40.8958 33.604 40.3491 34.2626 39.9847L33.8243 41.3901L35.3141 41.8748C34.4114 42.3148 33.3203 42.7278 31.9971 43.0825Z" fill="black"/>
<path d="M27.5315 4.92209C29.3766 4.92209 30.8526 5.51911 31.6678 6.15688C31.6678 6.15688 31.91 4.73212 32.7372 3.47399L31.2513 3.63875L30.4736 2.02391L28.9798 2.77601L27.5315 1.37646L26.0873 2.77601L24.5916 2.02391L23.8159 3.63875L22.33 3.47399C23.1572 4.73212 23.3993 6.15688 23.3993 6.15688C24.2166 5.51911 25.6886 4.92209 27.5315 4.92209ZM23.7484 4.20477L24.161 4.24743L24.3396 3.88105L24.8594 2.79545L25.8235 3.28204L26.1965 3.46812L26.4941 3.18127L27.5336 2.17322L28.5751 3.18127L28.8727 3.46812L29.2456 3.28204L30.2038 2.79545L30.7295 3.88105L30.9042 4.24743L31.3168 4.20477L31.7095 4.15822C31.529 4.5557 31.3962 4.93175 31.3009 5.24382C30.2613 4.6778 28.9084 4.35596 27.5297 4.35596C26.1567 4.35596 24.8057 4.6778 23.7624 5.24382C23.6651 4.93175 23.5342 4.55371 23.3536 4.15822L23.7484 4.20477Z" fill="black"/>
<path d="M49.177 23.8292C51.5636 23.8292 52.3611 21.4563 52.3948 21.3556L52.6607 20.5201L51.766 20.5472H51.762C51.4465 20.5472 48.8141 20.4793 46.9472 18.1608L46.7706 17.9456C45.5506 16.4297 44.394 14.9893 42.3268 14.3321C42.3864 14.2797 42.4717 14.2139 42.5888 14.1402C43.6857 13.4346 44.3246 12.5777 44.4853 11.5833C44.7193 10.0866 43.7433 8.89446 43.6996 8.84592L43.0351 8.04339L42.6205 8.99522C42.5928 9.05533 41.8944 10.5791 40.4263 10.5791H40.3172C40.2161 10.5732 40.1209 10.5693 40.0256 10.5616C40.0771 9.88116 39.9501 8.82848 38.9742 7.84176C37.8017 6.6534 36.3615 6.4751 35.6075 6.4751C35.2049 6.4751 34.937 6.52354 34.9093 6.52743L33.9054 6.72128L34.5243 7.51804C35.0105 8.13259 35.4509 9.26662 34.9291 9.85985C34.7624 10.0478 34.4193 10.201 34.0899 10.3541C33.4134 10.6585 32.491 11.0811 32.491 12.1591C32.491 12.8569 33.0445 13.5858 34.0483 14.2061C37.02 16.0322 38.8532 17.9378 39.6447 20.0413C40.8688 23.2767 39.2717 25.1222 37.7204 26.0935L37.024 26.5316L37.6331 27.0782C37.7144 27.148 38.4603 27.7897 39.5613 27.8827C39.7696 27.8963 39.9701 27.9079 40.1565 27.9079C40.8628 27.9079 41.464 27.7993 41.952 27.654C41.8171 27.8847 41.6524 28.1192 41.444 28.3557C40.5572 29.3599 39.4662 29.8174 37.8969 29.8407L37.3137 29.8504L37.2681 30.4222C37.2621 30.5366 37.2184 31.5971 38.2461 32.4985C38.4027 32.638 38.5932 32.7524 38.7917 32.8474C38.0953 33.46 37.3871 34.5262 37.2502 36.3543C37.1351 37.8798 36.7622 38.444 36.7582 38.4499L36.1134 39.4114L37.278 39.4269C39.2023 39.4269 40.6763 38.9074 41.698 37.8798C42.301 37.2712 42.6462 36.5849 42.8506 35.9762C43.1858 36.2554 43.6184 36.4997 44.1817 36.6296C44.396 36.678 44.6301 36.7052 44.8821 36.7052C45.4256 36.7052 45.8799 36.5927 45.9315 36.5811L46.6755 36.3873L46.3461 35.7087C46.3223 35.6545 45.7014 34.2936 46.3699 32.3511C46.6576 31.5117 46.8043 30.7596 46.8758 30.1741C47.344 30.4126 47.9708 30.6103 48.7823 30.6122C50.6232 30.6122 51.4347 29.2688 51.4723 29.2126L51.8354 28.5961L51.1629 28.3247C48.9687 27.4349 48.4828 25.0446 48.3855 23.7497C48.5839 23.7865 48.81 23.8214 49.0659 23.8292H49.177ZM50.9169 28.8967C50.9169 28.8967 50.2741 29.988 48.8001 29.988H48.7823C47.0127 29.9784 46.2985 28.9237 46.2985 28.9237C46.2985 28.9237 46.4017 30.2963 45.7628 32.1475C44.9951 34.3789 45.7688 35.9743 45.7688 35.9743C45.7688 35.9743 45.3562 36.0829 44.88 36.0829C44.6976 36.0829 44.5071 36.0654 44.3286 36.0189C42.8506 35.6758 42.4817 34.3614 42.4817 34.3614C42.4817 34.3614 42.6184 38.8028 37.3196 38.8028H37.278C37.278 38.8028 37.7442 38.1824 37.883 36.3969C38.135 33.1013 40.4184 32.6497 40.4184 32.6497C40.4184 32.6497 39.2003 32.5004 38.6726 32.0371C37.8474 31.3062 37.9049 30.461 37.9049 30.461C39.7696 30.4358 40.9898 29.8155 41.9201 28.7628C42.928 27.623 43.0946 26.3959 43.0946 26.3959C43.0946 26.3959 42.0927 27.2837 40.1545 27.2837C39.9839 27.2837 39.8014 27.276 39.615 27.2585C38.6984 27.1868 38.0636 26.6168 38.0636 26.6168C40.0811 25.3529 41.4975 23.1468 40.2418 19.824C39.236 17.1624 36.8197 15.1734 34.3876 13.6749C33.5781 13.1807 33.1278 12.6319 33.1278 12.1591C33.1278 11.0462 34.7465 11.0113 35.4111 10.263C36.177 9.3946 35.6969 7.98518 35.0323 7.13809C35.0323 7.13809 35.2565 7.09344 35.6096 7.09344C36.3098 7.09344 37.522 7.26597 38.5179 8.27412C39.8411 9.61169 39.2916 11.0676 39.2916 11.0676L39.6467 11.1355C39.859 11.18 40.0692 11.1878 40.2875 11.1974C40.3352 11.1974 40.3826 11.1994 40.4302 11.1994C42.3526 11.1994 43.2116 9.23563 43.2116 9.23563C43.2116 9.23563 45.255 11.6918 42.2475 13.6149C41.7297 13.9444 41.5016 14.2488 41.5611 14.5744L41.6086 14.7876L41.8229 14.8245C44.0032 15.4022 45.1062 16.8716 46.4533 18.5428C48.4987 21.0842 51.393 21.1656 51.7501 21.1656H51.7878C51.7878 21.1656 51.1272 23.203 49.181 23.203C49.1492 23.203 49.1215 23.203 49.0878 23.2011C48.193 23.1701 47.7348 22.8347 47.7348 22.8347C47.7348 22.8347 47.3836 27.4621 50.9169 28.8967Z" fill="black"/>
<path d="M44.9855 14.5877C45.8762 15.0509 46.394 15.6713 46.8484 16.2218C47.2947 16.7588 47.7192 17.2764 48.3818 17.4916C48.6178 17.5711 48.8679 17.6079 49.1219 17.6079C50.1178 17.6079 51.1175 17.0127 51.4965 16.1888L51.8774 15.363L50.9549 15.3087C50.9113 15.3069 49.7249 15.2021 48.4037 13.882C47.86 13.3411 47.2035 13.0562 46.4952 13.0562C45.6302 13.0562 44.9894 13.4787 44.9181 13.5214L44.069 14.1049L44.9855 14.5877ZM46.4972 13.6803C46.9416 13.6803 47.4594 13.8277 47.9493 14.3221C49.4868 15.8476 50.9171 15.933 50.9171 15.933C50.6573 16.4952 49.9035 16.9894 49.1237 16.9894C48.9432 16.9894 48.7627 16.9623 48.5822 16.9022C47.5249 16.5533 47.1459 15.0025 45.287 14.037C45.287 14.037 45.8067 13.6803 46.4972 13.6803Z" fill="black"/>
<path d="M45.4023 22.8246V22.8555C44.8667 18.6334 41.7282 15.584 38.2367 13.7287C37.9132 13.5601 37.6157 13.4167 37.3261 13.2791C38.3894 13.4399 40.1014 13.4593 41.4227 12.3389C41.4227 12.3389 39.4012 13.7927 35.2589 12.4726C36.4056 13.1996 38.6334 14.2251 40.6669 15.8864C45.7515 20.2521 42.113 24.5112 42.113 24.5112C43.9402 22.6481 44.0156 20.6514 43.4779 19.0211C44.4401 20.5855 45.0551 22.4853 44.9599 24.8271C44.8191 28.1827 42.9325 31.0848 40.9465 33.417C39.9924 34.5489 39.7781 35.939 39.7781 35.939C39.7781 35.939 40.1629 34.7119 41.2679 33.4499C43.3967 31.015 45.2157 28.4852 45.4538 24.8406C45.6741 25.5017 46.5808 27.3414 48.0189 28.0336C48.0229 28.0355 46.2157 26.9712 45.4023 22.8246Z" fill="black"/>
<path d="M18.3048 38.4475C18.3027 38.4417 17.9338 37.8776 17.8148 36.352C17.6758 34.5238 16.9696 33.4577 16.2713 32.845C16.4737 32.752 16.6602 32.6376 16.8168 32.4961C17.8425 31.5947 17.7989 30.5343 17.793 30.4199L17.7533 29.8479L17.166 29.8383C15.6008 29.8131 14.5077 29.3555 13.6209 28.3533C13.4146 28.1169 13.2479 27.8823 13.113 27.6516C13.6011 27.7969 14.1982 27.9055 14.9064 27.9055C15.0968 27.9055 15.2933 27.8939 15.5016 27.8804C16.6026 27.7872 17.3486 27.1476 17.4319 27.0758L18.0409 26.5292L17.3446 26.091C15.7873 25.1179 14.1962 23.2724 15.4182 20.0388C16.2098 17.9355 18.0409 16.0298 21.0166 14.2037C22.0205 13.5834 22.5701 12.8545 22.5701 12.1566C22.5701 11.0788 21.6495 10.6542 20.9731 10.3518C20.6438 10.1986 20.3006 10.0455 20.1338 9.85744C19.6102 9.26617 20.0525 8.13015 20.5366 7.51559L21.1595 6.71883L20.1518 6.52498C20.122 6.52119 19.8581 6.47266 19.4534 6.47266C18.6996 6.47266 17.2633 6.65106 16.0888 7.83941C15.1108 8.82803 14.9818 9.88076 15.0314 10.5592C14.9362 10.5669 14.8411 10.5709 14.7418 10.5766H14.6347C13.1627 10.5766 12.4663 9.05289 12.4386 8.99278L12.0239 8.04095L11.3533 8.84359C11.3157 8.89202 10.3356 10.0862 10.5737 11.5808C10.7325 12.5753 11.3712 13.4322 12.4683 14.1378C12.5874 14.2115 12.6707 14.2773 12.7302 14.3297C10.6649 14.9868 9.51044 16.4292 8.29027 17.9452L8.11377 18.1604C6.249 20.4788 3.61048 20.5467 3.29507 20.5467L2.39636 20.5196L2.67009 21.3552C2.70182 21.4559 3.49734 23.8287 5.88594 23.8287L6.00094 23.8249C6.25291 23.8171 6.4791 23.7842 6.68147 23.7454C6.58218 25.0384 6.09622 27.4287 3.90003 28.3204L3.22956 28.5918L3.59262 29.2083C3.62835 29.2644 4.44173 30.6079 6.28668 30.6079C7.09206 30.6059 7.71889 30.4082 8.18913 30.1698C8.26059 30.7553 8.40732 31.5074 8.69501 32.3468C9.36352 34.2893 8.74069 35.6501 8.71687 35.7044L8.3876 36.383L9.13343 36.5768C9.18302 36.5883 9.64135 36.7009 10.1829 36.7009C10.4368 36.7009 10.671 36.6737 10.8812 36.6253C11.4466 36.4954 11.883 36.2511 12.2144 35.9719C12.4167 36.5806 12.764 37.2669 13.3649 37.8755C14.3887 38.9031 15.8606 39.4225 17.785 39.4225L18.9515 39.4071L18.3048 38.4475ZM17.7413 38.8022C12.4425 38.8022 12.5774 34.3609 12.5774 34.3609C12.5774 34.3609 12.2084 35.6753 10.7304 36.0185C10.5538 36.0649 10.3654 36.0824 10.181 36.0824C9.70481 36.0824 9.29411 35.9739 9.29411 35.9739C9.29411 35.9739 10.064 34.3784 9.29616 32.1471C8.66133 30.2957 8.76442 28.9233 8.76442 28.9233C8.76442 28.9233 8.05227 29.9779 6.28073 29.9876H6.26286C4.78887 29.9876 4.14603 28.8961 4.14603 28.8961C7.6773 27.4635 7.33016 22.8381 7.33016 22.8381C7.33016 22.8381 6.87192 23.1715 5.97517 23.2044C5.94344 23.2064 5.91367 23.2064 5.88194 23.2064C3.9338 23.2064 3.27515 21.1689 3.27515 21.1689H3.31479C3.67394 21.1689 6.56442 21.0876 8.60978 18.5461C9.95677 16.8751 11.0617 15.4076 13.2381 14.8279L13.4563 14.7911L13.5038 14.5779C13.5634 14.2523 13.3372 13.9479 12.8195 13.6182C9.8119 11.6932 11.8553 9.23906 11.8553 9.23906C11.8553 9.23906 12.7103 11.2008 14.6367 11.2008C14.6842 11.2008 14.7279 11.199 14.7775 11.199C14.9938 11.1873 15.208 11.1795 15.4182 11.135L15.7734 11.0671C15.7734 11.0671 15.2238 9.6112 16.5491 8.27358C17.545 7.26362 18.7572 7.093 19.4554 7.093C19.8105 7.093 20.0307 7.13765 20.0307 7.13765C19.3681 7.98673 18.8881 9.39416 19.6538 10.2625C20.3164 11.009 21.9332 11.0458 21.9332 12.1585C21.9332 12.6296 21.4829 13.1802 20.6735 13.6745C18.2393 15.173 15.8229 17.1619 14.8191 19.8236C13.5654 23.1464 14.9799 25.3505 17.0014 26.6164C17.0014 26.6164 16.3665 27.1864 15.4481 27.258C15.2615 27.2755 15.081 27.2833 14.9064 27.2833C12.9702 27.2833 11.9684 26.3954 11.9684 26.3954C11.9684 26.3954 12.135 27.6225 13.1368 28.7624C14.0733 29.8151 15.2933 30.4354 17.1581 30.4606C17.1581 30.4606 17.2177 31.3058 16.3924 32.0366C15.8627 32.498 14.6446 32.6492 14.6446 32.6492C14.6446 32.6492 16.93 33.101 17.1799 36.3965C17.3169 38.1819 17.779 38.8022 17.779 38.8022H17.7413Z" fill="black"/>
<path d="M5.93943 17.6103C6.1953 17.6103 6.44531 17.5735 6.68146 17.4941C7.34792 17.2788 7.77052 16.7612 8.21685 16.2243C8.67313 15.6738 9.18692 15.0534 10.0777 14.5901L10.9942 14.1093L10.1432 13.5257C10.0718 13.4812 9.43293 13.0605 8.56995 13.0605C7.85975 13.0605 7.20119 13.3436 6.65949 13.8864C5.33838 15.2046 4.15403 15.3113 4.11029 15.3132L3.18787 15.3655L3.56674 16.1932C3.94766 17.0133 4.94545 17.6103 5.93943 17.6103ZM7.11392 14.3245C7.60593 13.8302 8.12362 13.6829 8.56995 13.6829C9.25633 13.6829 9.77626 14.0395 9.77626 14.0395C7.9193 15.0069 7.53838 16.5558 6.47704 16.9047C6.30249 16.9648 6.11994 16.992 5.93943 16.992C5.15973 16.992 4.40589 16.4996 4.14798 15.9355C4.14798 15.9335 5.57638 15.8482 7.11392 14.3245Z" fill="black"/>
<path d="M10.1036 24.8291C10.0043 22.4873 10.6193 20.5875 11.5834 19.0232C11.0458 20.6534 11.1193 22.6502 12.9484 24.5131C12.9484 24.5131 9.31004 20.254 14.3966 15.8885C16.432 14.2271 18.6579 13.2015 19.8025 12.4745C15.6624 13.7948 13.6408 12.3408 13.6408 12.3408C14.9619 13.4613 16.6741 13.442 17.7374 13.2791C17.4497 13.4168 17.1483 13.5602 16.8288 13.7289C13.3333 15.5841 10.1968 18.6334 9.65923 22.8556V22.8227C8.8478 26.9693 7.04248 28.0336 7.04248 28.0336C8.47888 27.3415 9.38345 25.5037 9.60368 24.8406C9.84373 28.4853 11.6628 31.0151 13.7915 33.4499C14.8965 34.7119 15.2854 35.939 15.2854 35.939C15.2854 35.939 15.0691 34.5491 14.1109 33.417C12.1291 31.0888 10.2424 28.1848 10.1036 24.8291Z" fill="black"/>
<path d="M26.3356 16.2861V17.1237C26.6313 16.7727 27.2026 16.8445 27.2026 16.8445V18.0522C27.2026 18.0522 27.1827 18.6454 26.9665 18.9033H27.5854H28.2025C27.9902 18.6475 27.9684 18.0522 27.9684 18.0522V16.8445C27.9684 16.8445 28.5397 16.7727 28.8333 17.1237V16.2861H27.5854H26.3356Z" fill="black"/>
<path d="M25.8036 11.3195C26.1984 11.6259 26.4265 11.6762 26.4344 11.682L26.5892 11.7518V10.9628L25.137 10.3657C25.137 10.3676 25.1508 10.8232 25.8036 11.3195Z" fill="black"/>
<path d="M29.2577 11.3195C29.9144 10.8232 29.9263 10.3657 29.9263 10.3657L28.4741 10.9628V11.7518L28.6269 11.682C28.6369 11.6762 28.8629 11.6259 29.2577 11.3195Z" fill="black"/>
<path d="M31.8743 8.10691C31.8743 6.91089 29.8131 5.83496 27.5376 5.83496H27.5356H27.5297H27.5237C25.2483 5.83496 23.1871 6.91089 23.1871 8.10691L23.2327 8.40163L24.1412 13.4981L23.2288 14.0157L20.868 15.363H20.8759C20.8759 15.363 20.3443 15.6286 20.0982 15.7934C19.1995 16.404 19.0091 17.2938 19.5309 17.6621C19.6598 16.9372 20.2469 16.1772 21.346 16.1772C22.1377 16.1772 22.7407 16.5766 23.2288 17.1756C23.3537 17.3268 23.4727 17.4876 23.5838 17.6621C23.7207 17.8812 23.8576 18.0731 23.9945 18.2592H17.9141C18.3604 19.1373 18.7848 20.0679 18.7848 21.0779V34.2291C18.7848 37.4123 21.2905 38.9321 24.0005 38.9321C26.0953 38.9321 26.3771 38.8391 27.5336 39.9635C28.6843 38.8371 28.966 38.9321 31.0628 38.9321C33.7748 38.9321 36.2764 37.4123 36.2764 34.2291V21.0779C36.2764 20.0679 36.7009 19.1373 37.1492 18.2592H31.0669C31.2018 18.0751 31.3386 17.8812 31.4756 17.6621C31.5886 17.4876 31.7056 17.3268 31.8287 17.1756C32.3207 16.5746 32.9217 16.1772 33.7133 16.1772C34.8123 16.1772 35.3975 16.9352 35.5285 17.6621C36.0503 17.2938 35.8619 16.404 34.9571 15.7934C34.7151 15.6286 34.1835 15.363 34.1835 15.363H34.1914L31.8306 14.0157L30.922 13.4981L31.8306 8.40163L31.8743 8.10691ZM24.0818 8.70014L27.2758 9.75864V14.6613L24.925 13.4497L24.0818 8.70014ZM24.7424 19.1142C25.2661 19.6239 25.7799 19.94 26.268 20.1145C26.2045 20.3606 26.1211 20.8685 26.3572 21.3745C26.5497 21.7816 26.8989 22.0957 27.4007 22.305C27.4563 22.8091 27.7817 23.5671 28.6843 23.9024C28.2895 24.2921 27.9046 24.6585 27.7479 24.8078L24.0877 24.7515C24.0044 24.7108 23.8635 24.6197 23.8001 24.4898C23.7921 24.4723 23.7802 24.4626 23.7742 24.4433L24.3714 24.5382C24.3853 24.5402 24.3972 24.5402 24.4091 24.5402C24.5242 24.5402 24.6254 24.4626 24.6452 24.3464C24.6651 24.2165 24.5758 24.0982 24.4468 24.0788L23.7128 23.9664L24.5281 21.2156L23.7564 19.6279L22.5186 20.9073L22.4431 23.7687L21.6119 23.6407C21.4829 23.6155 21.3599 23.7086 21.3381 23.8345C21.3183 23.9606 21.4055 24.0788 21.5365 24.1021L21.8857 24.1544C21.7606 24.2242 21.6793 24.2785 21.6694 24.2863L21.598 24.3347L21.5782 24.42C21.3758 25.2226 21.8341 25.9844 22.3281 26.3256L22.3102 26.4264C22.2903 26.5506 22.3182 26.6708 22.3934 26.7716C22.4649 26.8743 22.576 26.9363 22.6991 26.9576C22.7248 26.9614 22.7526 26.9634 22.7764 26.9634C22.9907 26.9634 23.1771 26.818 23.2306 26.6067C23.4152 26.6281 23.5838 26.632 23.6988 26.632H23.7962L28.5989 27.4791L28.6803 27.4267C29.0632 27.165 30.5213 26.126 30.9994 25.7828C31.1304 25.8934 31.2771 25.9941 31.4557 26.0775C31.3009 26.5854 31.2909 27.3666 31.904 27.9831H19.6637V21.0798C19.6637 20.411 19.4633 19.7384 19.2273 19.118H24.7424V19.1142ZM30.678 25.43C30.192 25.779 28.9422 26.6708 28.4898 26.9809L24.1254 26.2152C24.1354 26.1764 24.1451 26.1395 24.1551 26.1007C24.2127 25.8797 24.2703 25.5774 24.2742 25.2226L27.9423 25.2807L28.0117 25.211C28.0673 25.1567 29.2299 24.0595 29.8229 23.4274C29.9639 23.6 30.1404 23.7648 30.3706 23.9102C30.2912 24.3289 30.3249 24.9259 30.678 25.43ZM23.3716 24.6914C23.4747 24.9027 23.6612 25.0443 23.7901 25.1237C23.7862 25.3214 23.7664 25.6297 23.7128 25.9011C23.7009 25.9612 23.685 26.0174 23.6671 26.0737C23.6571 26.1085 23.6474 26.1376 23.6394 26.1608C23.447 26.1608 23.068 26.1376 22.7585 26.0271C22.4154 25.903 21.9035 25.2885 22.0225 24.6119C22.1713 24.5227 22.5145 24.3347 22.8358 24.3347C23.0839 24.3329 23.2526 24.4471 23.3716 24.6914ZM22.9173 23.8404L22.9907 21.0934L23.6215 20.4402L24.0183 21.2505L23.2367 23.8869L22.9173 23.8404ZM30.6384 38.0811C30.4003 38.0811 30.1801 38.085 29.9816 38.0927L30.5014 36.5128C30.5828 36.2938 30.1721 36.0127 30.0036 35.7664C30.2594 35.9235 30.922 36.2666 31.2415 36.4042C31.2077 36.4546 30.6384 38.0811 30.6384 38.0811ZM32.2691 36.286L31.9299 38.0152C31.7136 38.0443 31.4835 38.0598 31.2474 38.0695L31.6045 36.4062C31.7116 35.9119 30.3526 35.7588 29.6821 34.7875C29.3548 35.1481 28.7379 35.2547 28.1188 35.2547C27.5535 35.2547 26.9881 35.1655 26.6448 35.0996C26.5576 35.086 26.4743 35.0763 26.393 35.0763C26.1945 35.0763 26.014 35.1364 25.8891 35.3419L25.7898 35.5049L23.939 35.0783L23.4787 35.8226C23.4132 35.9429 23.4093 36.0456 23.5143 36.158L23.6394 36.2918C23.5541 36.5555 23.1692 36.9529 23.1692 36.9529L22.8934 36.6175C22.6753 36.3791 22.7109 35.9448 22.939 35.5416L23.6731 34.33L25.2404 34.5509L24.9963 34.0082C24.669 33.291 25.167 32.3779 25.2204 31.8526C25.2027 32.0115 25.0538 32.0464 24.8793 32.0464C24.7206 32.0464 24.544 32.0173 24.427 32.0173C24.3814 32.0173 24.3417 32.0211 24.3198 32.0366L23.8952 32.2887L23.56 31.9998C23.5204 31.9437 23.5064 31.8138 23.6057 31.7168L24.3814 30.8677L23.4648 29.8228L24.7484 30.4529L25.1392 29.9896C25.2462 30.0923 25.2006 30.3616 25.2006 30.3616C25.6014 30.3714 26.7242 30.9782 26.7838 32.3933C26.7878 32.436 26.7878 32.4844 26.7878 32.531C26.7878 32.531 26.7977 32.5484 26.8174 32.5775C26.8968 32.6842 27.115 32.9575 27.3927 32.9826L29.1664 33.1533H29.1743C29.3687 33.1533 29.7556 32.9303 30.2515 32.9303C30.5213 32.9303 30.8229 32.9982 31.1442 33.1959C31.1442 33.1959 31.3049 33.0719 31.5668 33.0584C31.5866 33.0564 31.6084 33.0564 31.6283 33.0564C32.4238 33.0564 32.7531 33.7581 33.1796 34.3417C33.5011 34.7855 33.9295 35.4447 33.9295 35.4447C33.7708 35.6288 33.624 35.7297 33.378 35.7297C33.3106 35.7297 33.2331 35.7238 33.1499 35.7084C32.2968 35.5552 32.1738 33.8414 31.6878 33.7058C31.6621 33.698 31.6343 33.6961 31.6105 33.6961C31.4537 33.6961 31.3843 33.8317 31.3843 33.8317C31.6065 34.4153 31.4775 34.6518 31.7156 35.1016C31.8942 35.435 32.2115 35.7102 32.3424 35.8401C32.3424 35.844 32.3068 36.096 32.2691 36.286ZM22.7447 34.6498L22.826 34.8495C22.7724 35.024 22.1574 35.2722 22.1574 35.2722L22.0245 34.9892C21.8836 34.6868 21.9134 34.1768 22.342 33.8647L23.3378 33.2715L24.3932 33.4906C24.3734 33.8182 24.5737 34.0625 24.5737 34.0625L23.4667 33.8551L22.8041 34.3029C22.693 34.3784 22.6851 34.52 22.7447 34.6498ZM32.4357 37.9201L32.7393 36.3732C32.7551 36.2821 32.775 36.1755 32.7889 36.0864C32.8742 36.1212 32.9654 36.1502 33.0646 36.1678C33.1776 36.189 33.2828 36.1988 33.378 36.1988C33.8422 36.1988 34.112 35.9603 34.2925 35.7567L34.5267 35.4911L34.3363 35.2004C34.3184 35.1713 33.8977 34.5199 33.5725 34.074C33.509 33.9869 33.4474 33.8996 33.3859 33.8047C33.017 33.2657 32.5547 32.5891 31.6283 32.5891L31.545 32.5911C31.3923 32.6008 31.2613 32.6298 31.1561 32.6686C30.8644 32.5349 30.5649 32.467 30.2535 32.467C29.8706 32.467 29.5472 32.5698 29.333 32.6416C29.2715 32.6589 29.2159 32.6783 29.1723 32.6861L27.4404 32.5194C27.4186 32.5155 27.3471 32.4748 27.2619 32.374V32.3662L27.6368 32.2189C27.5317 30.9995 26.3333 30.2492 25.6648 29.9953C25.6351 29.8732 25.5756 29.7511 25.4705 29.6522L25.0974 29.3072L24.7701 29.691L24.6095 29.8867L22.1852 28.9136L23.7624 30.8482L23.1395 31.7691C22.9113 32.0056 23.1633 32.2421 23.1633 32.2421L23.8059 32.6744L24.4726 32.4321C24.4964 32.4321 24.5163 32.4379 24.5381 32.4399C24.5063 32.5387 24.4647 32.9265 24.4369 33.035L23.2803 32.812L22.0641 33.4828C21.4393 33.9306 21.354 34.6731 21.5861 35.181L21.721 35.4698L21.9134 35.8769L22.3379 35.7044C22.3439 35.7025 22.3499 35.7006 22.3538 35.6967C22.2011 36.1736 22.2626 36.6271 22.5363 36.9258L22.7943 37.2436L23.1374 37.6682L23.5143 37.2727C23.6254 37.1642 23.9846 36.7707 24.0957 36.4333L24.177 36.1755L23.9925 35.9777L23.9628 35.9429L24.169 35.6095L25.6787 35.9564L26.0179 36.0321L26.1984 35.7413L26.2977 35.5823C26.3156 35.5494 26.3215 35.5435 26.3909 35.5435C26.4445 35.5435 26.498 35.5494 26.5556 35.561C27.1249 35.6656 27.6507 35.718 28.1169 35.718C28.5692 35.718 28.839 35.7006 29.1624 35.5959C29.1624 35.5959 29.9737 36.4954 30.0016 36.5303L29.5056 38.0268L29.4837 38.1179C28.5434 38.1916 28.0851 38.3932 27.5317 38.9341C26.7281 38.1548 26.1588 38.0733 23.9984 38.0733C21.4134 38.0733 19.6617 36.5923 19.6617 34.2272V28.4445H35.3975L35.4016 34.2272C35.4035 36.1465 34.2509 37.484 32.4357 37.9201ZM35.8381 19.1142C35.5979 19.7345 35.3975 20.4072 35.3975 21.0761L35.3995 25.3912C34.4771 25.24 34.368 24.2688 34.364 24.2262L34.3462 24.0285L34.1478 24.011C33.747 23.9741 33.4812 23.8075 33.2569 23.5942C32.8048 23.1522 32.8027 22.4349 32.8048 22.4291C32.7988 22.4659 32.3068 23.1386 32.8781 23.8733C33.1181 24.1835 33.4653 24.3735 33.9156 24.4491C34.0208 24.988 34.4314 25.7479 35.3995 25.8642V27.9773H32.6778C31.422 27.2948 31.9537 26.093 31.9794 26.0427L32.0866 25.8139L31.8465 25.7247C30.4875 25.2323 30.8605 23.9063 30.8804 23.8501L30.9359 23.6563L30.7515 23.5709C29.6286 23.063 29.7813 21.6925 29.7952 21.6363C29.4501 21.9096 29.325 22.4679 29.563 23.0146C29.4342 23.158 29.2616 23.3325 29.0731 23.5225C27.9106 23.2336 27.8749 22.1888 27.8749 22.1403L27.8728 21.9793L27.7201 21.9212C27.2658 21.7565 26.9544 21.5102 26.8016 21.1787C26.629 20.8123 26.6905 20.4285 26.7381 20.2443C26.871 20.2734 27.0039 20.2948 27.1309 20.3044C27.2619 20.3181 27.3968 20.3258 27.5317 20.3258H27.5396H27.5495C27.6844 20.3258 27.8173 20.3181 27.9483 20.3044C28.6724 20.2347 29.4837 19.9304 30.3288 19.1123H35.8381V19.1142ZM31.5966 14.7523L32.6718 15.363H32.6877L32.9574 15.5162C32.3503 15.681 31.8861 15.9776 31.4973 16.3671C31.4835 16.3789 31.4696 16.3944 31.4557 16.4079C31.3664 16.501 31.2771 16.6018 31.1938 16.7046C31.178 16.7239 31.1621 16.7452 31.1442 16.7666C31.061 16.8712 30.9835 16.9779 30.9082 17.0903C30.8962 17.1097 30.8823 17.1291 30.8684 17.1465C30.7792 17.2763 30.6939 17.416 30.6086 17.5594C29.8428 18.8486 28.6208 19.6182 27.5336 19.6202C26.4485 19.6182 25.2265 18.8486 24.4608 17.5594C24.3773 17.4198 24.294 17.2841 24.2048 17.1524C24.1868 17.1272 24.171 17.1019 24.1551 17.0806C24.0798 16.9739 24.0044 16.8693 23.927 16.7704C23.9072 16.7434 23.8894 16.722 23.8695 16.6987C23.7862 16.5998 23.7009 16.501 23.6156 16.4099C23.5977 16.3962 23.5858 16.3789 23.568 16.3633C23.1771 15.9737 22.7149 15.6789 22.1058 15.5162L22.3796 15.363H22.3916L23.4667 14.7523L24.5718 14.134L27.5237 15.7042L27.5297 15.6984L27.5376 15.7042L30.4896 14.134L31.5966 14.7523ZM30.1404 13.4515L27.7875 14.6632V9.75864L30.9795 8.70014L30.1404 13.4515ZM27.5317 9.21972L24.0322 7.86851C24.3298 7.1803 25.7025 6.59484 27.5317 6.59294C29.3627 6.59484 30.7356 7.1803 31.0311 7.86851L27.5317 9.21972Z" fill="black"/>
</svg>
