<svg width="54" height="32" viewBox="0 0 54 32" fill="none" xmlns="http://www.w3.org/2000/svg">
<path d="M33.2416 5.5752H20.4784V26.4212H33.2416V5.5752Z" fill="#FF5F00"/>
<path d="M21.793 15.9999C21.7914 13.9926 22.2465 12.0113 23.1237 10.2058C24.0009 8.40033 25.2773 6.81806 26.8563 5.57873C24.9006 4.04178 22.552 3.08604 20.0789 2.82074C17.6057 2.55545 15.1078 2.9913 12.8706 4.07849C10.6335 5.16568 8.74731 6.86034 7.42771 8.96878C6.10811 11.0772 5.40833 13.5144 5.40833 16.0017C5.40833 18.4891 6.10811 20.9263 7.42771 23.0347C8.74731 25.1431 10.6335 26.8378 12.8706 27.925C15.1078 29.0122 17.6057 29.448 20.0789 29.1827C22.552 28.9174 24.9006 27.9617 26.8563 26.4248C25.2768 25.185 24.0001 23.6022 23.1229 21.796C22.2457 19.9899 21.7909 18.0078 21.793 15.9999Z" fill="#EB001B"/>
<path d="M47.0395 24.2155V23.7883H47.2237V23.7H46.7855V23.7883H46.9585V24.2155H47.0395ZM47.8902 24.2155V23.7H47.7576L47.603 24.0682L47.4483 23.7H47.3157V24.2155H47.4115V23.8252L47.5551 24.1602H47.6545L47.7981 23.8252V24.2155H47.8902Z" fill="#F79E1B"/>
<path d="M48.3063 16C48.3062 18.4875 47.6063 20.9248 46.2864 23.0334C44.9666 25.1419 43.0801 26.8365 40.8427 27.9235C38.6053 29.0106 36.1071 29.4461 33.6338 29.1805C31.1605 28.9148 28.8119 27.9586 26.8563 26.4212C28.4347 25.1807 29.7108 23.598 30.5882 21.7924C31.4656 19.9869 31.9216 18.0056 31.9216 15.9981C31.9216 13.9907 31.4656 12.0094 30.5882 10.2038C29.7108 8.39828 28.4347 6.81557 26.8563 5.57513C28.8119 4.0377 31.1605 3.0815 33.6338 2.81582C36.1071 2.55015 38.6053 2.98572 40.8427 4.07275C43.0801 5.15979 44.9666 6.85442 46.2864 8.96293C47.6063 11.0715 48.3062 13.5088 48.3063 15.9963V16Z" fill="#F79E1B"/>
</svg>
