<svg width="54" height="32" viewBox="0 0 54 32" fill="none" xmlns="http://www.w3.org/2000/svg">
<path fill-rule="evenodd" clip-rule="evenodd" d="M7.64873 9.33542C8.06564 9.33293 9.30469 9.22133 9.82953 10.9927C10.1831 12.1858 10.7462 14.1403 11.519 16.8561H11.8337C12.6625 13.9929 13.2318 12.0385 13.5416 10.9927C14.0719 9.20288 15.3977 9.33546 15.928 9.33546L20.0194 9.33546V22.0627H15.8493V14.5623H15.5697L13.2451 22.0627H10.1076L7.78303 14.5568H7.50339V22.0627H3.33331V9.33546L7.64873 9.33542ZM26.0076 9.33546V16.8414H26.3402L29.1679 10.6693C29.7168 9.44106 30.8867 9.33546 30.8867 9.33546H34.9221V22.0627H30.6649V14.5568H30.3323L27.56 20.7289C27.0111 21.9516 25.7858 22.0627 25.7858 22.0627H21.7504V9.33546H26.0076ZM49.6368 15.3835C49.043 17.0663 47.1781 18.2715 45.1134 18.2715H40.649V22.0627H36.6006V15.3835H49.6368Z" fill="#0F754E"/>
<path fill-rule="evenodd" clip-rule="evenodd" d="M45.3087 9.33545H36.3883C36.6006 12.169 39.0408 14.5947 41.5668 14.5947H49.9181C50.4 12.2397 48.7409 9.33545 45.3087 9.33545Z" fill="url(#paint0_linear_2_1067)"/>
<defs>
<linearGradient id="paint0_linear_2_1067" x1="50" y1="12.6437" x2="36.3883" y2="12.6437" gradientUnits="userSpaceOnUse">
<stop stop-color="#1F5CD7"/>
<stop offset="1" stop-color="#02AEFF"/>
</linearGradient>
</defs>
</svg>
