<svg width="54" height="32" viewBox="0 0 54 32" fill="none" xmlns="http://www.w3.org/2000/svg">
<path fill-rule="evenodd" clip-rule="evenodd" d="M15.6338 22.5577H11.8374L8.9906 11.6969C8.85548 11.1973 8.56858 10.7556 8.14655 10.5475C7.09334 10.0243 5.93277 9.60801 4.66669 9.39803V8.97989H10.7824C11.6264 8.97989 12.2595 9.60801 12.365 10.3375L13.8421 18.1718L17.6366 8.97989H21.3275L15.6338 22.5577ZM23.4376 22.5577H19.8522L22.8045 8.97989H26.3899L23.4376 22.5577ZM31.0285 12.7414C31.134 12.0101 31.7671 11.5919 32.5056 11.5919C33.6662 11.4869 34.9304 11.6969 35.9855 12.2182L36.6185 9.29486C35.5634 8.87672 34.4029 8.66675 33.3497 8.66675C29.8698 8.66675 27.3376 10.5475 27.3376 13.1577C27.3376 15.1434 29.1312 16.186 30.3973 16.8142C31.7671 17.4405 32.2946 17.8586 32.1891 18.4849C32.1891 19.4244 31.134 19.8425 30.0808 19.8425C28.8147 19.8425 27.5486 19.5294 26.3899 19.0062L25.7569 21.9314C27.023 22.4527 28.3927 22.6627 29.6588 22.6627C33.5607 22.7659 35.9855 20.887 35.9855 18.0668C35.9855 14.5153 31.0285 14.3071 31.0285 12.7414ZM48.5333 22.5577L45.6865 8.97989H42.6287C41.9956 8.97989 41.3626 9.39803 41.1516 10.0243L35.88 22.5577H39.5708L40.3075 20.5738H44.8425L45.2645 22.5577H48.5333ZM43.1563 12.6364L44.2095 17.7536H41.2571L43.1563 12.6364Z" fill="#172B85"/>
</svg>
